<?xml version="1.0" encoding="iso-8859-1"?>
<!-- Generator: Adobe Illustrator 19.0.0, SVG Export Plug-In . SVG Version: 6.00 Build 0)  -->
<svg version="1.1" id="Layer_1" xmlns="http://www.w3.org/2000/svg" xmlns:xlink="http://www.w3.org/1999/xlink" x="0px" y="0px"
	 viewBox="0 0 511.999 511.999" style="enable-background:new 0 0 511.999 511.999;" xml:space="preserve">
<g>
	<g>
		<path d="M479.308,204.721V68.686h-65.385V36.108C413.923,16.198,397.723,0,377.813,0H68.801C48.89,0,32.691,16.198,32.691,36.108
			v95.572c0,19.911,16.198,36.109,36.109,36.109h309.012c19.911,0,36.109-16.199,36.109-36.109V99.103h34.968v80.422L208.097,225.15
			v53.155h-27.375v233.694h85.168V278.305h-27.375v-27.96L479.308,204.721z M377.813,137.372H68.801
			c-3.138,0-5.692-2.554-5.692-5.692V36.108c0-3.138,2.554-5.691,5.692-5.691h309.012c3.139,0,5.692,2.554,5.692,5.691v95.572h0.001
			C383.505,134.819,380.951,137.372,377.813,137.372z M235.474,481.583H211.14v-172.86h24.334V481.583z"/>
	</g>
</g>
<g>
</g>
<g>
</g>
<g>
</g>
<g>
</g>
<g>
</g>
<g>
</g>
<g>
</g>
<g>
</g>
<g>
</g>
<g>
</g>
<g>
</g>
<g>
</g>
<g>
</g>
<g>
</g>
<g>
</g>
</svg>
